# xmcd
#
# Track frame offsets: 
#        150
#        19448
#        35715
#        62248
#        85038
#        101683
#        127043
#        152473
#        171871
#        192398
#
# Disc length: 2905 seconds
#
# Revision: 2
# Processed by: cddbd v1.5.2PL0 Copyright (c) Steve Scherf et al.
# Submitted via: ExactAudioCopy v0.99pb5
#
DISCID=860b570a
DTITLE=Various Artist - Giong nuoc mat
DYEAR=1989
DGENRE=Soul
TTITLE0=Vy Lan - Tinh den roi di
TTITLE1=Elvis Phuong - Thanh pho mua bay
TTITLE2=Ngoc Lan - Uot mi
TTITLE3=Tuan Anh - Hanh phuc ang thang
TTITLE4=Kieu Nga - Anh da quen mua thu
TTITLE5=Tuan Vu - Con nho hay khong
TTITLE6=Thai Hien - Giong nuoc mat
TTITLE7=Kieu Nga - Xin con goi ten nhau
TTITLE8=Huong Lan - Dem dong
TTITLE9=Nhu Mai - Diem xua
EXTD=
EXTT0=
EXTT1=
EXTT2=
EXTT3=
EXTT4=
EXTT5=
EXTT6=
EXTT7=
EXTT8=
EXTT9=
PLAYORDER=
